<svg xmlns="http://www.w3.org/2000/svg" shape-rendering="geometricPrecision" viewBox="61 61 1930 1929"><defs><linearGradient id="a" x1="1026" x2="1026" y1="61" y2="1990" gradientUnits="userSpaceOnUse"><stop offset="0%" stop-color="#5eead4"/><stop offset="60%" stop-color="#2dd4bf"/><stop offset="100%" stop-color="#14b8a6"/></linearGradient></defs><path fill="url(#a)" d="M1967 703v232q-3 5-3 11 0 5-5 8l-11 4q-5 1-4 7 0 6-4 7t-7-3-1-7l-1-7q0 6-5 8 5 2 4 6-2 4-5 3-6-1-6 5 0 4-3 4c-4-1-7 4-10 4l-17 6q-8 2-16-1h-5q-5 1-8-2 2 6-4 6l-5-1c-8-3-14 2-21 3q-8 1-15-2-3 0-3-4l-3-4-6 3c-5 6-6 6-13 3q-7-2-13-1l-17 1h-27l-5-3q-3-2-3-5 2-4 5-4l8-1q6-1 8-7h1q-7 2-7-5l-1-10q0-3 2-5 3-1 5 1l10 7h1c2-3 6-1 8-3l5-1q5 1 8-2-7 2-10-4-4-4-3-9v-1q0 8-6 6l-6 1c-7 2-15-2-16-10l-1-5c-1-7-1-7-8-8q-6-2-3-7 3-3 8-4 7-2 14-1-5-5 1-8l4-5q3-5-2-8-4-2-2-7l1-3q0-5 5-5 6 0 7-5 0-8 7-5-1-6 4-9l3-4q2-7 10-6 5 0 6-5l2-2 14-1 8 2q10 0 6 8v4q2 1 3-2 4-3 8 1l3 4q3 3 6 2 5 0 6 4 2 7 9 7 5 1 7 5 1 3 4 3 2 0 3-4c4-6 2-14 4-20q3-10 10-3-1-4 1-7 2-5-3-8-7-2-2-8 2-3-1-4c-3-1-6-9-6-11q2-5 8-6 5-3 12-1l3-2q6-4 13-5h6q5 3 10-1l4-1q4 0 3-5 1-8-6-12h-8c-5 0-4 3-5 6l-2 5q-2 7-8 4-6-5-7 2l-4 5q-4 5-8 2-4-2-1-8l2-2-5 1q-5-1-5 3 1 5-3 5-3 1-5-3-3-3-1-6 2-1 2-5-6 5-10 0l-6-3q-6-2-2-8 5-6 7-14 1-6-4-6l-5-1q-4-6-11-9-1-2-4-1l-11-1q-6-1-4-8 5-5 11-6 4 1 8-2c5-3 5-3 9 2l2 1q-2-5-7-6-5 0-5-4-2-5-7-3l-5 4q-9 7-13-2l-2-5q1 2-1 5l-4 3-1 2c-5 0-9 5-14 4l-3-3q-1-3-4-1-14 5-23-8c-3-5 0-9 0-13q1-5-1-8-4-5 0-9c4-4 1-8 1-12l-1-8q2-6-1-10-2-5 1-8l6-7q3-2 1-5-1-5 3-7 5-2 9 3 3 4 6 1 4-3 9-4-12 2-22 0-3-1-4-5 0-3 3-4c3-1 8-2 7-5q-2-5-9-5l-15-5-6-3q-2-3-6-2-7 0-9-7 0-3-4-4h-10q-8 1-12-4-8-4-17-6-3-1-5 1-3 4-8 1-10-4-9-15-2-7-8-6-11 5-14-6 2 5-4 6c-10 3-16-2-23-7q-3-4-7-2l-5-1-7-4q-3-1-3-4 0-5-4-8-4-5-5-11 1-5 6-4 3 1 4-2 3-4 7-1l7 4 1-7q2-10 13-10 5 0 6-5-1-11-9-14l-13-1-4 2q-3 6-7 1l-6-4q-5-1-3-6v-3l-2 2c-2 5-9 6-12 11q-2 3-6-2l-7-14q-2-3 1-6c3-2 6-6 10-3l-7-3q-4-2-10 0t-8-3q-3-7-10-5h-3q-6-4-13-1l-2 1q-6-3-13-1-5 0-5-5 1-7-7-9l-14-3q-4 0-6-3-1-3 1-6c3-4 0-7-1-11l-1-2q-1-6-6-6l-4-1q-5-4 0-8l3-2q1-2-1-4-1-1-3 2t-2 7-3 4l-10 1c-5-2-12 3-14 7l-5 6q-2 4-6 0-5-3-6 2t-1 9q0 6-6 5-8-1-8-9-3 4-7 2t-3-6-4-4c-4 2-9-1-13 3q-2 1-6-1h-6q-5 1-3 6 3 5-2 8-6 3-10-3l-3-4q-4 4-9 6-5 4-2 9 3 6-2 9c-4 4-12 5-16 2q-2-1 0 0 0-1 0 0 7 3 2 10-8 11-17 20c-4 5-5 5-11 2q-7-1-10 5-1 4-5 4-3 0-4-4-4-8-9-2l-10 11q-3 3-7 3-12 1-22 6-5 2-8-1l1 1q8 3 3 8-4 4-1 8 6 4 5 11 1 4 5 6 8 3 3 10-2 3 3 5c8 0 9 0 9 8q0 3 3 3t5 3q0 4-4 6l-6 4q-3 2-3 6 1 4-1 7-5 2-9-1-5-2-7 1l-5 6q-3 2-7 2-7-1-10 6-1 8-10 8l-2 1c-1 4-6 5-6 10q0 3-3 3l-3 1q-9 2-17 7-3 3-10 2l-9 3q-4 4-9-1l-5-4q-3-1-5 1-5 2-9-2-2-3 0-7 2-3 0-5-5-4-8-10c-3-4-12-4-16-1l-3 4q-3 3-7 1-3-2-2-6l1-8c-2 9 1 18 1 27l-2 30v6l1 33c1 7-1 14 3 21v3c-5 11-2 21 0 32q6 14 17 25 4 5 10 2 4-2 10-1 4 2 9-1h3q5 2 11-1 3-2 6 1 4 2 6 0l8-4q9-3 12-12l3-5q6-3 6-9-1-4 3-7l3-5q0-6 6-5l14-1q5-2 6-8 0-6 7-7 4-1 7-5l8-11 2-3q11-6 19-17 2-4 6-6l1-1q1-7 10-10 5-3 6-10 1-3 6-4 4-2 5-6t4-5q9-1 11-10l4-7c4-3 3-8 7-11v-1q0-10 9-6l-5-4q-1-4 2-6l1-4q-1-5 4-5 9-1 16-4 5-2 6 1 4 3 8 0 8-5 10-14 2-8 10-9c7-1 13-10 12-16q0-3 2-5h5q7 3 9-4 3-5 8-9 8-4 10-13 0-3 3-3c6-1 11-6 17-7q8-1 15-8c1-2 9-2 11 0q0 3 2 4t1 4q0 2-2 2-12 2-21 7l-26 19q-21 19-39 40l-21 20-23 24-27 26-31 31-46 46-17 18-27 26-23 23a64 64 0 0 1-78 4 62 62 0 0 1-26-51v-54l1-47v-5l-1-2V525l1-59v-10l-1-32v-43l1-85V141q-1-13 7-25l8-12q19-23 49-23l55 1h363l67-1 28 1 40-1h53l34 1h145q13 0 23 8 8 2 14 11l2 2q8 7 11 17 6 15 5 32v157l1 20v88a1447 1447 0 0 0 0 126v81c2 24-2 49-1 74q1 3-1 5"/><path fill="url(#a)" d="M899 217h5q12 1 22 9 18 13 24 34l2 16 1 40-1 39 1 44-1 59 1 29v195l1 123-1 38v113q1 13-2 27-6 21-20 37-56 59-114 116l-93 92-26 28-17 16-4 5-1 1-19 13a86 86 0 0 1-25 8q-13 2-24-3c-22-7-39-31-39-54V538q1-14 9-29 11-21 30-37l49-49 44-43 64-63 36-35 51-50q17-17 41-16z"/><path fill="url(#a)" d="M451 745q5 17 4 33v688l-1 16c3 4 0 8 0 12q-6 6-7 13l-11 16-12 11-2 1q-13 10-24 23l-211 210-3 4-7 6-1 1-6 4-2 1q-12 8-26 7h-14q-9-2-17-8l-9-6-3-3-5-6-2-3q-7-9-8-19-2-6-1-12v-42q-2-8 0-17v-4q-2-8-1-14v-181l1-21v-3l-1-8-1-51 2-92q-2-7 0-15v-2q-2-7 0-16v-5q-2-7-1-14l1-13v-7q-2-5-1-11v-159q-1-18 1-35l2-8 1-3 1-2v-2l1-3 2-4 2-5 1-2q4-10 13-17l1-2 44-44 18-19 7-5 40-38 122-123q3-2 5-6l20-19q12-10 26-11a55 55 0 0 1 55 22l7 9z"/><path fill="url(#a)" d="M819 1603h191l2-1 26-1h249l27 1q13 3 22 11c31 21 29 64 8 86l-79 80-103 103-37 37-32 31-5 4-4 2-19 9q-16 5-34 4l-20 1-10-1H725l-60-1-46 1-59-1-50 1h-25l-90-1-48 1-31-2c-24-1-45-18-50-40q-6-30 14-53l94-94 101-102 52-51q23-20 53-23l145-1h41q5-2 12 0h11q6-2 13-1z"/><path fill="url(#a)" d="m1371 612 17-14 55-56q20-19 47-12 27 8 32 36l1 2q4 6 0 14-5 20-21 34l-284 284-130 128-61 62-193 193-256 255-26 27-7 6-294 295a50 50 0 0 1-55 11c-31-13-35-54-14-75l137-136 76-76 4-5 5-4 193-194 29-30q5-9 13-16h3q3 0 5-4l115-115 178-178 4-5 5-4 118-119 71-69 23-25 53-52 152-152q3-2 5-6"/><path fill="url(#a)" d="M1139 1119h16q5-3 9-2h64q5 0 9 2l74-2h156q9-1 18 2h5q7-3 14 0h7q4-3 9-2h112l153-1q17 1 32 6l12 9q18 16 20 38 2 27-16 47l-16 14-22 22q-8 10-20 19l-5 5-179 178a95 95 0 0 1-34 24q-12 5-24 5H811q-29 1-46-23a53 53 0 0 1-5-56q9-18 25-30l4-5 223-223q28-26 66-27z"/><path fill="url(#a)" d="M1716 999h-411c-37 1-68-33-60-71q4-17 16-29 34-36 69-70l119-119 39-42 36-35q19-18 24-43c6-38-15-72-47-84l-20-4h-12q-3-2-3-7l3-2q4 0 7-3 2-6 8 0 1 3 6 4h3q3 1 6-2l2 1a33 33 0 0 1 21 8q0 3 2 4 2 2 5 1 6-1 7 4l4 7 2 3c10 3 10 12 13 19q4 9 1 17-1 8 3 14 3 2 1 6-2 6 1 12t-1 11q-2 2-2 5 0 5-3 10v9q2 5-4 5-7 1-9 7l-4 7q0 3-4 3-5 0-8 5l-4 4q-5 3-7 9l-11 13q-5 5-8 11-1 3 3 5 9 1 11-8 2-8 11-8h3c6-5 15-6 19-13l2-3q-2-9 6-9 4 0 4-4-1-5 4-7l9-14-2-4v-6h11q6-1 5 5t3 7c3 1 3 8 8 4 3-2 6 0 9-2l5-2q6-5 14-2l15 1q7 2 9 8 1 3 5 5 6 3 3 9t-2 12q1 9-7 14-3 2-1 5t-1 5-6-1q-3-1-3-6l-2-5q-3-7 3-9l3-2q2-1 1-3-2-3-4-2c-4 4-11 5-11 12q0 5-3 5-5 0-6-3-2 0-3 2-5 6-11 3-3-1-2-4l1-8q0-5-6-5l-13 4-3 6q0 7-6 5-7-1-11 3l-10 15q-4 7 3 12 7 6 3 14-4 7-6 15-3 10-12 5-7-7-5-17l-1-3c-5-4-5-4-1-9l1-1-1 1q-5 8-14 8-5 1-2 4v2q-2 6 1 12c1 3-4 7-7 6q-9-3-17-3l-3-2q-2-4-5-3-4 1-4 6-1 6-6 5 2 1 5-1 5-1 6 5l-3 18q-3 9-11 11-6 0-12-4l-1-1q2 4 0 6-4 3-5 7-1 3-4 3-4 0-4 5l1 9q3 11-5 18l1-1h1q8 0 14-4h4q15 7 31 7 3 0 5 4l1 2q5 0 9 2 4 1 7-5 2-5 7-3c3 1 6 7 5 10q-3 4-1 9 2 6-4 6-4 0-7 2l6-1q8-1 7-9l1-3c5-1 3-9 9-8l12 2q7 3 11-3 5-5 9 0-4-3-2-7 1-2-2-3-4-5-1-8 4-5 9 0 1 3 4 2 3-2 3-5-2-3 0-6 3-7 10-11 4-1 4-5 0-5 5-3 7 2 15-4 2-3 5 0l4 1 1-4-2-6q-3-5 2-8 4-2 5-5v-6c-1-7-1-7-8-8l-4-1-3-1c-2-4-1-12 3-13l1-1c3-8 9-5 14-4q7 3 7 10 1 5 6 8 3 2 8 2 10-3 7 7 3-2 1-4v-4q2-3-1-5l-3 3q-2 4-6 1-4-4-1-8l1-1q-9 3-7-4 0-8 7-11l2-4q2-3 5-3 4 0 4 4-1 8 8 12l2 1q-1-3 3-5l12-2c4 0 6 6 3 9q-5 4 1 7 2 3 1 7-1 2 1 4 3 0 4-2 3-6 9-2l2 4q-2 4 3 6 6 1 3 7-1 6-8 8l-2 2q2 5-2 8l1 4q3 4 7 6 5 2 2 5 3-3 7-2 4 2 3 6 0 7-6 10-11 4-17 13-3 4-6 3-5-2-4 3c1 7 1 7-6 10l-11 4q-4 2-4 6l-2 4q-6 6-11-1 0-3-3-4-5-1-6-6-1-3-3-1l-20 3-19-2-3-1q-2-2-5 1-2 3 0 6 5 5 0 8-3 2-2 5 2 3 4 2 5 1 9 5v4l-3 7c-1 7-3 13 3 19q3 4-2 7l-4 1q-6 3-7 8l-3 2q-10 0-10-10l2-3q4-3 4-10 1-3-2-3-4-2-2-6v-2q1-4-1-6-3-1-4 2l-6 3q-4 3-3 9c1 3-2 10-5 11q-5 1-8-6l-7-11-1-1q-7-3-8-10-1-2-4-2-4-1-6 3-3 12-13 17-2 0-3 2v5h4q8-5 11 4l2 4q3 7-3 10l-2 1q-5 8-13 3l-3 1q-6 1-7-4-3-4 2-7l2-2q-1-2-4-2-6-1-6 6 1 8-7 11h-6l-5-1h-4l-3-2h-1q-3 3-7 2l-4-1q-6 0-5-5 0-5-3-2l-8 5-18 5-4-2q-6-3-8 3l-1 7-1 3c-6 3-7 10-13 13q-4 3-10 3 1 4 3 4 4 0 3 3c-1 5 4 6 5 9q2 2 3 1 8-1 6 5-1 6 3 10l2 5q0 8 8 6 6-3 13-1 5 0 8-3 4-3 9 0 6 3 13 1 7-3 14 1l4 2q10 0 19 2l4-1 6-1q16 4 33 1 6-1 14 1 7-1 14-5 3-2 7-1h9l30 1q5 1 8-2 2-3 6-1 8 5 17 2l4 1q8 6 17 4h32l4-1h7q9-2 19 1l25-1h28l7 2q5 3 6-3c1-2 10-7 12-6q2 0 2 3 0 9 10 8h8q6 0 9-5 3-4 5 0c3 5 8 1 12 3v-2l-3-1v-5q2-2 4 1 4 6 12 2h2q13 7 25-2 1-2 3-1 5 1 9-2c4-2 8-2 8-9q1-3 5-3 4 2 5-1c1-4-3-2-5-2l-2-1-2-2 2-2h5q5-1 2-4t-1-5 4 0q3 2 6 1l3 2-2 2c-2 2-4 8-2 10q1 3 4 2 3 0 2-3v-3q-1-8 8-8l12-5 1-5c1-4 0-8 5-10 1 28-18 54-45 62q-6 3-14 2z"/><path fill="url(#a)" d="m1521 502-3-1-17-7q-2-3-6-5-2-2-3 2 1 2-1 5-6 0-9-4-2-4-5-1-3 7-11 4-6-1-10 3-6 7-16 7-4-1-7 3l-1 1c-4 1-9 1-8 8q-5 6-12 11-4 2-6 7-2 4-6 7-3 3-6-1-1-2-4-1-1 2 1 4 2 3-1 6l-6 7q-3 6-10 5-5 0-6 6c-1 10-9 13-15 18l-4 1c-7-6-13-1-19 1h-7l1 2q3 5-2 6-2 1-2 3 1 3 4 1t5 1q1 3-3 5l-1 2q0 2-2 3-2-1-1-3-2-4-6-2 6 4 0 7l-2 2c0 7-9 11-9 19q-1 4-8 6t-7 8q-1 4-6 4-3 0-5 3-1 6-5 10-3 6-8 4l-1 1v1q4 4 0 5c-7 1-10 8-14 12q-6 7-13 12-6 5-11 12-4 7-10 8-3 0-3 2-3 7-7 11-2 3-5 2-6-2-7 4-1 2-3 2l-2-3q1-3-1-2-2 0-2 2 0 6-4 8-2 2-2 5 1 7-6 10-2 1-2 4v2l-11 10q-5 1-11 6-4 2-8-1-3-4-5 0-2 3-5 2c-3 0-7-4-10 2q-1 1-4-1-6-3-14 0-7 4-12-3l-10-12q-9-15-10-33l-1-8 1-3c4-4 1-7 1-11q-3-20-1-39l-1-18 1-42q-1-10 1-20 4 7 2 13-1 3 1 5 3 2 6-1c4-5 4-5 11-6h2q6-4 8 3 2 9 11 14 5 1 0 4-6 4-2 6 2 2 4 0 4-3 7-1l4 1q2-1 3 2 1 7 6 2 5-3 9-2 9 0 14-5 5-3 12-4 5-1 6-6l8-11 2 1q4 1 6-1 2-3 1-6-4-4 2-3h2c2-6 7-3 10-3 5-1 12-9 12-13q0-3 2-3 3 0 2 2 1 8 8 6 4-1 1-3-4-2 0-6l12-9q2-1 1-3l-3-1q-9 3-5-6v-4q-2-2-4-1-7 1-11-5l2-4q8-3 0-6-7-4-7-11c1-3-3-5-4-8q-3-4 1-9l1-4c-6 2-6-5-10-7l1-2q5-1 8 3 2 3 5 0 8-4 15-5l3-1q1-2 4-1 4 3 7-2c5-4 7-11 14-13q9-3 8 5 0 4 2 4 4-1 1-4 0-6 5-4 6-1 12 1 4 1 6-3l16-20q5-5-2-9c-2-1-6-1-4-4q3-2 6 2 8 4 14-1c2-1 6-4 2-8q-3-5 3-10 6-3 10-10 1-2 3-1 2 0 2 3 0 4 2 7 3 3 6 0 2-2 0-4-6-7 4-9 4-2 10 0 5 2 6-2 3-3 6-1 1 2 3 1c4-6 6 1 10 2v4q-2 3 0 4 3 1 3-2 2-6 6-2 3 2 1 4-2 3 0 4 3 3 6 2t0-3 1-6l2-4q2-9 8-3 1 3 4 2 4-3 4-7-1-4 3-5 4 0 8-3h14q4 0 3-4c-2-5 3-8 5-11h4q3 3 2 7 1 6-4 5-2 0-2 2l1 1 9 2q3-1 3 5-1 6 4 13 3 3-1 4-3 0-3 4 2 3 5 1 7 0 12 3l10 2q3-1 4 1 0 3-2 3c-4 2-1 4-1 6q0 3 3 2c4 1 8-2 12 1l4-1q5-3 10 0 2 2 4 1 8-2 11 4 3 8 9 3h4q8 4 20 6-5 4-9 3-6-1-8 4-1 5 3 6 2 3 1 5 1 4 4 6 3 1 5-3 4-3 6-9 1-3 5-2 5-1 6 2 1 2-1 3l-4 4q8 1 12 7 0-8 8-6l12 1q8 1 9 9l2 5q4 6-3 8-4 4-11 4-4 0-2 4 3 5-2 4l-2 2 1 1 3 2q2 1 1 3l-3 1-12-5q-4-3-4 2 1 6-5 2-1-2-4-1c-2 1 1 3 1 4l2 4 1 2q7 0 4 6c-1 5 5 6 7 10q2 5 6 0 5-1 9 3c5 4 11 9 19 7q3 1 4-2 0-2-2-3-4-1-3-4 3-2 5 1l5 6q4 6 9 2 2-3 5-1 3 3 7 0 3-1 2 2l-1 12q1 5 7 8 3 2 5-1 5-5 10-2 4 4 10 4 3-1 4 2 5 7 13 4h6l7 2q3-1 3 2 0 8 7 7l5 1q9 8 21 9l6 2q2 3 5 2 3 0 4 3 0 3-3 4l-8 4q-4 2-1 4l4 2c7-2 14 1 21 0q3-2 4 1l-4 2q-6-3-10 4c0 1-10 3-11 2q-2 0 0-2v-4h-4q-3 2-2 3l1 7q1 2-2 3-5 2-7 6-3 2-1 5 3 6 2 13 0 7 2 13 2 4-2 6t-2 6q6 8 1 17-1 3 1 4 8 12 21 8 6-1 7 5-2 3-3 1-7 0-8 6-1 4-6 4-6 1-12-2c-1-1-6 5-5 7 2 4 0 8 3 12v7q-2 4 1 7 3 1 3-2 4-5 5-11 1-4 6-3 6 0 7 5-1 4 3 6 2 1 2 4 0 2 2 0 1-4-3-7l-4-3v-4q4-3 8-1t4-3l-1-4q-2-4-1-7 0-8 8-4 3 2 5 0 3-2 0-5c-3-4 1-6 2-9l1-3q2-5-2-8-2 0-1-2h3q5 3 6 9 0 3 5 5 3 0 5-3 4-5 10-6 7 0 6 6 0 3 3 3 5 1 10 5l3 4-3 3q-5 1-7-2-1-6-7-2-3 3-9 2-5 0-8 5-1 2 2 3h3q1-3 2-1 3 4 7 1h1l13 9q2 5 6 3 5-2 6 3l-1 9q-2 8-7 14-2 4 4 4 4-1 6 3 1 2 3-1 1-4 6-2 4 3-1 8-6 3 3 8-3-7 4-10l3-3 1 1q0 2 2 3l3-2q0-3 3-3 2 2-1 4 0 4-3 6-2 3 1 5 2 1 4-1 3-3 3-8 2-3 6-3 3-2 5 1 0 3 3 2 2-1 2-3l3-12 1-2c2-2 5 3 7 1q4-2 7 0 10 8 8 20 1 7-5 3h-1c-4 0-5 5-8 3q-5 0-6 4h-1q0-9-10-4l-8 5q-2 2-4 1c-4-4-7 1-11 1q-6 0-4 6l1 3q-1 3 2 2 4 0 5 4 1 3-3 4-3 3 1 5c7 3 7 3 4 10q-2 5 1 8 0 5-4 6-3 0-1-2 2-5-3-5-3 0-3 4c-3 6 0 13-4 19l-1 1c4 6-1 6-5 7q-4 0-6-4c-1-3-3-7-7-3h-3c-2-5-7-8-7-14-4 5-7 2-10-1l-3-4-4-3-1 4-1 3-2-1c-6-3-10-5-4-11q1-3-3-4c-3 0-8 3-11-2q-2-1-2 2-1 4-4 4-2-1-1-4l-2-1q-2 0-2 2 0 6-7 5-7-2-10 6l-3 4c-2 2-7 4 0 7q2 1 0 2-4 3-7 1-4-3-4 2c0 6 0 7-8 8q-2-1-3 1l1 2q3 4-1 3l-2 2 1 2q9 7 1 15l-2 1-3 3 4 2q3-1 3 3-2 3-5 2-7-2-15 0l-6 3q-2 1-1 3h3l4 1q6 0 4 6l2 12c0 3 8 6 12 4l7-1q3 1 4-1t-1-4-1-6q5 5 6 10 2 6 6 10 4 2 3-2-1-2 1-3t2 2q2 4 7 5-1 2-3 2l-5 1q-4 6-9 2l-2 1q-2 2-5 1h-3q-1 2 1 3t0 3q-1 1-3-1-1-6-8-6l-3-4-4-2v4c0 4 3 8 1 12 3-1 5-5 9-1q3 3 0 5-8 1-5 9c-6-6-11 1-16-1l-3 2q-1 2 1 3l4 3-32 2h-8q-2-1-1-4 2-6 0-13-1-8 7-7 5 2 7-3 2-3 8-2l-5-7q-3-3-6-2-6 3-7-4-2-5-6-4h-1c-5-1-10-4-14 1q-6 0-10-5l-2-2q-6-2-2-8-11 0-12-5-1-6 4-8 1 1 0 0c-3 0-10-10-10-13q2-7 9-3 10 7 18-2l5-2q10 1 13-10v-1q9-5 11 2c2-5-3-9-2-14l-3-1q-6-3-3-8 2-3 1-7 1-5 7-9l-9 2-3 3q-2 9-10 6-9-3-15 5-4 6-11 2l-5-1q-6 1-9-3 4 3 3 7-2 5-7 5h-2c-6 2-6 2-9-4q-2-3-5-3 4 1 3 6-2 4-5 3-8 1-13-5l2-6q2-2 0-5-2-2-6-2-5 2-7-3c0-3-2-7 3-9q4-1 0-4-5-4-1-9 4-3 4-6 0-2 3-2 2 0 2 3-1 5 4 4h4q14 3 29-1l6-3q4-3 4 2c0 3-2 6 3 7q4 2 8-1 1 3-2 5-2 3 1 4 3 2 5-2c0-4 4-6 4-11q0-4 4-2 2 3 6 1l7-4q3-2 2-7c0-2-4-5-1-7q3-1 7 2 1 1 3-1 4-3 6-9l2-2c5 1 8-3 12-4q5-3 4-8-3-5-5-2c-5 6-8 1-12 0l8-3q-9-3-13-11-1-2 1-4 3-1 3-3 0-7 6-8 5-2 4-8-1-4-6-3-7-1-2-5 2-2 1-3-1-3-4-2-2 0-3 3 0 3-4 5l-4-1-2-8q3-2 1-5-3-3-7-2h-2q2-4 5-6 4-2 3-6-2-3-5-1-9-2-9 7l-1 2-1 2q-1-7-7-9-7-1-5-8 0-3-2-4-3 1-2 4 0 3-4 3c-3 1-6 8-5 10q0 3 2 1l2-3q2-3 4-1 3 3 0 4-5 2-3 7l2 1q2 0 1-2-2-4 3-4c3 1 8-1 7 4l-1 14-2 4-6-1v-3l2-6h-5q-8 2-12-4-5-7-7-13c-1-2-10-5-11-3-2 2 2 2 2 3q-1 3-3 2-4-2-6 1v8l2 1h2c12 2 12 2 12 13l-2 11q-2 4-6 1-1 3 1 5 4 6 1 12-1 3-4 3t-4-3-3-1q-5 7-14 4h-4q-1 3 1 4l2 4c-10-2-14 4-18 10v3q5 3 0 6c-3 2-2 7-6 6l-5-5q-1-2-4-1l-2 2q1 3 4 2 2 0 3 3 1 1-1 3-5 3 1 5 2 0 3 2v5q-3 1-4-1-10-7-15 7c-5-7-13-5-19-7q-1-2-3 1l1 3q3 1 2 4-3 1-4-1-2-2-3-1v3q3 7-4 8l-8 3q-3-1-2 2-1 4-6 2-2-2 0-5 3-8 11-6 2 1 2-2-3-6 0-12 1-3-3-5-3-2-5 2l-6 7c-2 1-5 3-7-2q0-3-3-1l-2 2q-2 2-5-1-1-1 1-4 2 0 1-3h-3q-5 1-8-1c-4-1-10 1-14-3q-3-1-7 3 1-5-1-6-3-1-6 1c-3 2-16 4-21 3l1-2q11-4 8-16l-1-16q0-5 5-3h3q3-7 8-13l9 1q6 4 4-3c7 1 7 0 9-7l2-13q0-6-5-4-6 0-8-4v-3q2-1 2 1 2 3 5 2 2 0 1-4 3-10 12-6 3 4 7 2h2c3 5 8 1 11 4q3 1 4-1 1-3-1-4-5-3-1-7 2-4-1-7-3-1-2-4 2-3 5-1 4 2 7-1l3-1q4 2 5-3 1-6 9-7 2 0 1 2-1 5-5 7-5 4 1 5 4 0 4 5 1 4-2 2l-1 2q0 7 6 11 5 2 6-3c1-5 5-8 3-13l2-2q6-5-1-11l-6-5v-1c3-3 0-8 2-10l12-16q5-6 12-4 4 2 4-3 0-7 7-9l11-3q8-1 9 7l-1 7q-2 3 1 4 3 2 7-1l2-6q1-3 4-2 2 0 2 3-1 3 2 4 3-1 2-4l1-10q-1-3 3-1 4 3 6-2 2-3 6-1 5 2 5 7 0 4-4 4-8 2-4 8 2 2 1 5 0 3 3 5h3v-2l-2-5c0-2-3-8 4-4h2q4-6 3-11-1-8 2-12 3-6-3-7-3 0-4-5-3-9-14-7h-3c-9-6-16-2-23 2q-2 4-6 1-3 0-2 2-1 4-5 3-3 1-3-3 0-3-4-5-7-2-3-9v-3h-4q-3 2-6 0h-2v2q9 8-1 14-4 2-2 7 0 3-2 5-3 1-3-3-2-1-2 1-2 5 2 8l1 3h-3q-4-3-9-1-3 0-2 4 4 6-3 8l-3 1q-6 6-15 11-2 3-5 1-8-1-9 8 2 4-4 5-5 3-11 4-3 1-3-2-2-4 1-11c4-7 13-12 16-20l11-13q5-6 12-8 4-2 5-7 3-9 12-9 3 0 2-3-4-4 0-8c3-6 0-14 6-19v-6q-3-5-3-11v-1c5-5-2-9-2-14l-1-8q4-13-5-25l-1-3q2-4-3-4-5-2-7-6c-2-4-2-9-8-10l-7-1z"/><path fill="url(#a)" d="M1783 767q-5 0-5-5t-5-4q-4-1-4 3 0 5-6 9l-4 4q-6-2-4-10 3-4-2-9-3-2-1-3 3-5-1-9-2-1-2-3h3q4 0 5-5 0-3 3-3 2 0 3 3 0 3 3 3c5-1 10 0 12-7q3-6 11-2l3-1q4-5 10-3c-3-6 2-3 4-5q2-1 3 2l-2 2q-2 2-3 7 2 4-2 6-2 2-5 0-3-3-6 0l-7 2q-1 3 2 6 1 6-3 8l-1 3-1 4q1 2 3 2 7 0 6 8-5 4-7-3"/><path fill="url(#a)" d="M1610 550v4q1 2-2 3l-6-4q-1-1 2-3z"/><path fill="url(#a)" d="m1475 915 9 1h6q7-4 4-12-2-1 1-4c2-2 13-2 15 0q5 3 0 5l-3 1q-2 1-2 5 1 3 4 2t6 1q6 3 8-4 0-4 3-2h3v-5l-4-7q-2-5-6 1c-2 2-3 5-5 0l-1-2q-7-4-1-9l11-8q3-3 4-9t7-5q4 0 5-3 2-1 4 1v3q-2 6 3 9 6 2 7 5l3 5q3 1 3 4-1 5 3 6 3 0 4-4 4-4 0-6c-4-3-1-5 1-7l17-13q3 8 1 14-1 3 2 5l2 4 1 10-2 3-4 1c2 2-1 8 6 8q3 8-4 8l-6 1-1-1q-1 0 0 0 4 11 0 20-2 3 1 4 8 4 0 10-3 1-2 5 2 4 7 4l3-1q3-2 5 2 1 3-2 4c-4 2-7 6-12 4v7q1 5 6 7 6 0 4 5l-10-1q-7 1-12 5-3 2-7 1l-2-3q2-3 1-6 2-1 0-4-1-3 2-6 0 1 0 0-2 2-2 5l-2 4q-4 0-5-4v-13q-6 11-13 4c-2 3 2 9-4 10q-5 0-8-4 0 4-4 4-9 1-9 9l-2 2-6 1-3 1c-7 0-14-4-21-1l-4-2q-6-4-12-2c-6 1-12 3-17-2q-2-1-4 1-6 5-14 3h-3c-5 4-11 1-16 1q-5-1-2-4 4-6-3-9-3-4-2-9 3-3 1-4-3-1-3 2-1 2-4 2-2 0-1-4 0-3-3-5-3-1-2-5c1-4-3-3-6-5-1 0-5 1-4-2q1-4 6-5 10 1 15-9l1-2c7-3 6-9 6-15q-1-4 5-4 5-1 10 3 3 2 5 0l10-4q7-1 13-9 0-2 2-2l1 3 1 3q-1 7 5 9l-1 2q-2 4-6 3 4 1 6-3 5-1 9-4z"/><path fill="url(#a)" d="m1578 916 7-2q5 0 5-5l2-1 4-3q4-1 2-5 2-4 5-3l2-1q1-1-1-2-4-3-3-8c-1-3 1-7-2-10q-1-1 3-2l10 2h5v-3q-1-2-4-1-4 1-3-2 0-4 4-4l10 3q3 1 2 5v2q2 1 3-2t4-1q2 2 3 0 2-2 1-4-1-3-3-2l-3 1q-2 1-2-1-1-2 1-2 2-2 5-1c6 2 13 0 18 3q4 3 6-1 7-11 20-6 5 1 6-5-1-7 5-5l3-1c2 0 3-3 5-1q5 3 6 10-5-7-8 0-2 2 0 4 5 2 0 4-4 1-3 5 1 3 5 1 4-1 3 3v8q2 9-3 12-3 2-5-1 0-2 2-3 2 0 1-2l-2-1-5 1-1-1 1 1q1 6-3 9l-4 3q-2 3-5 2-3-4-6 1-3 2-4 5-1 2-3 1c-4-2-10 0-13-4q-2-2-5-1l-1 3q1 3 4 2 5 0 3 4-1 3 2 4l5 1q3 1 2 3-2 2-3 1c-2 0-4-3-6 0v4q3 3 7 3l6-1q2-1 3 2 1 1-2 3l-4 2q2 2 3 1 4-1 3 2c-1 6 4 4 7 5l2-1q1-6 7-2 3 2 8 2 7-1 6 6 1 6 5 2t7 2l4 4 3 9q1 4-2 4-2-1-2-3-1-4-4-1l-4 5q-3 4-7 0h-3v3q3 4 1 7 1 6-3 11l-4 1h-23q-6 0-13-4-1-2-3-1c-7 4-12-1-17-2h-4q-5 5-12 3-13-3-28-1-1-3-4-3-6 1-8-5l-2-6v-2q3-2-1-3l-2-1 2-2 3-1c6 4 10-1 14-3l-2-1q-8 4-14-2-4-5 1-8l4-3q2-2 1-3l-2-2q-4 1-5-3-2-3 1-4 6-4 3-11z"/><path fill="url(#a)" d="M1560 989v4q-21-1-41 1-4 1-7-3c1-3-2-7 0-10q4-3 9-3 5-1 3-5t1-4 4 3l2 4q2 2 4 1t-1-3l2-9q6-1 7 4 0 2 2 1 3 0 3-4l2-4h7q1 3-2 5l-1 10q-3 6 3 7 2 1 3 5"/><path fill="url(#a)" d="M1491 496q-2-5 0-11 2-3 3-2 6 4 7 11h-2l-6 3z"/><path fill="url(#a)" d="M1644 774c-2 2-3 6-6 2q-2-2-2-5l3-2 7 2q0 2-2 3"/><path fill="url(#a)" d="M1578 838c2-1 1-5 5-3l2 4q-2 4-6 4l-3-2q-1-1 2-3"/><path fill="url(#a)" d="M1545 857q-2-5 3-5 4-1 4 2 1 4-2 5t-5-2"/><path fill="url(#a)" d="M1598 900q5 4-1 6l-5 2z"/><path fill="url(#a)" d="M1522 507q5-6 7 1-4 3-7-1"/><path fill="url(#a)" d="m1475 915-13 3 1-2q4 1 7-3h3z"/><path fill="url(#a)" d="M1570 842q-3 0-2-3h4q2 3-2 3"/><path fill="url(#a)" d="M1911 985q3-3 5-1 1 1-1 3t-4-2"/><path fill="url(#a)" d="M1449 900q-3 0-2-2 0-3 3-1l2 1q-1 3-3 2"/><path fill="url(#a)" d="M1473 913h-3q0-3 2-4 2 0 1 4"/><path fill="url(#a)" d="M1458 772q-3-1-3-3l1-1q3 1 2 4"/><path fill="url(#a)" d="M1500 726q2-2 2 0 1 1-1 1-1 1-1-1"/><path fill="url(#a)" d="M1493 497q2-4 6-3-1 2-6 3"/><path fill="url(#a)" d="m1484 916-5-1q3-3 5 1"/><path fill="url(#a)" d="M1503 993q0-3 3-1 0 2-3 1"/><path fill="url(#a)" d="M1490 916q-1 3-4 0z"/><path fill="url(#a)" d="M1707 992q0-2 2 0z"/><path fill="url(#a)" d="m1701 992 2 1z"/><path fill="url(#a)" d="M1417 457c-3 3-8 2-11 6l-3-1q-1-2 1-3 4-5 0-8-2-2-5-1-1 2 1 4v8q-2 4-6 3-3-1-2-5v-2c-6-7 4-11 4-18 0-2 6-3 10-3q4 0 3 5c0 5 4 3 7 4q2 1 3-2l3-7q0-2 3-2l24 1 24 5q7 1 3 6c-3 4-2 12 2 16l16 1q5-1 3-6-1-2 1-4 3 0 5 3l4 8q2 3-1 3l-6-1q-11 0-12 10c0 3-8 8-10 6q-5-4-10-3-4 0-4-2t4-2h12q2 1 5-1l1-3-3-2-15 1q-6 0-7-4 1-4 6-3h2q-1-3-3-2-5 0-7-5-4-6-10-1-8 9-15 1c-3-2-6-6-9-1q-1 2-4 0-1-3-4 1"/><path fill="url(#a)" d="M1705 685q1-6 7-7 4 0 4-4-1-2 2-2l3-1q1-2 4-2 2 2 0 4-2 3 1 5 3 1 4-2c3-4 11-2 12 3q1 4 5 6 2-1 2 2l-3 2-11 1q-3-1-4 1-1 1 1 4l2 2q3 3 0 5-2 2-4 0t-3-1v3c0 2 4 3 1 5q-5 4-9-1l-6-6q-4-4-1-7 3-5 4-12-5 1-8 4-1 3-3 1-2-1 0-3"/><path fill="url(#a)" d="M1682 665q-2 5-5 6h-2q-1-6-6-6-6-2-1-6 2-1 1-4-4-9 3-13 5-4 4-10v-4q1-3 4-3l2 1q1 3-2 4 4 3 10 2 2 0 2 2l3 3q4-1 3 2-2 4-5 3l-3-2h-4q-2 1-1 4l-1 3c-4 6-2 12-2 18"/><path fill="url(#a)" d="M1701 603q-1 9-9 7-3-3-7-1-3 2-4-1-2-3-4-2t0 4q2 4-3 2-8 0-16-3-2 0-2-2l2-2 16-4q3 0 5-4 2-3 0-6-3-2-6 2c-1 1-2 4-5 1q-2-1-2-5l5-1 16-1c-1 3 3 8-3 11l2 2q4 3 8 2z"/><path fill="url(#a)" d="M1539 480c-7-3-15 0-22-2q-4 1-5 4 2 5-3 5-5-1-7-5 0-5 5-5 5-1 6-7 2-3-2-5-5-5 1-10 5-4 8 1 5 3 2 9-2 5 4 6c9 0 9 0 13 9"/><path fill="url(#a)" d="M1295 524q0 4-2 2c-5-6-13-5-19-7q-5-1-3-5 0-3 3-1 6 4 8-5-1-5 2-8 6-2 12-1l3 3v1c-1 3 3 5 2 8q-3 3-8 2-3 2-2 5z"/><path fill="url(#a)" d="M1782 756c0-3-6-3-4-8 2 1 2 5 5 3q2-3 0-6l-3-6q-2-3 1-5 2-2 4 1 3 2 4 0 3-3 6-1 5 4 9-3 3 0 5 2 0 4-2 5-4 8-10 1-3-3-5 1l1 5q3 7 1 13l-1 3q-3 1-4-1-1-4-7-4"/><path fill="url(#a)" d="m1278 527 1 5c0 1 7 7-2 4q-3 0-2 4 0 4-3 7t-6 1q-3 0-3-3 1-6-2-8-5-2-12-2h-3l2-2q6-3 13-2 7 3 10-4 4-4 7 0"/><path fill="url(#a)" d="m1702 739-3 1q-2 2-4 0 0-4 3-5l8-2q6 0 10-3 3-3 6 0 4 5 9 2h2q1 2-1 2l-5 7q-2 2-3 1-6-1-9 4-6 4-7-2 0-5-6-5"/><path fill="url(#a)" d="M1699 619q0-3 2-5l4 3q7 9 6 19 0 7-6 7-6 1-2 6 3 2 1 5-4 0-5-2-4-5 0-9 6-6 2-12-4-5-2-12"/><path fill="url(#a)" d="m1747 828-2 4q-5 5-11 3c-3-1-6-8-5-12l1-4q1-7 7-6 6 0 6 5c-1 5 4 6 4 10"/><path fill="url(#a)" d="M1365 452q1 4 4 7 4 2 1 6-2 2-5 1c-6-3-13-1-20-2h-2q-3 0-3-2 0-3 2-2 8-1 11-8 3-6 12 0"/><path fill="url(#a)" d="M1646 617q4 3 1 6t-6 0h-19q-4-1-3-5 1-6 5-6 10 4 22 5"/><path fill="url(#a)" d="M1732 797q0-4-4-5-2-1-1-3t3-1q6 3 8-3 4-6 7 0l6 5q3 4-1 7-3 3-5-1c-3-3-5 1-6 2q-4 3-7-1"/><path fill="url(#a)" d="M1833 764q0 4 4 6 5 3 7 9v5h-6q-6-4-6-11c1-2-4-7-7-7h-3q-1-3 1-4 2-2 2-6 0-2 2-2t1 3q-3 6 5 7"/><path fill="url(#a)" d="M1539 480c2-2 8-1 3-7q-1-2 1-4 3-2 4 1h1c8-1 6 6 8 10q2 4-3 4l-6-1h-4q-1 2-4 1z"/><path fill="url(#a)" d="m1725 950-2-2c0-3-5-4-3-7q4-2 6-6h1l9 6q1 3-2 5l-1 2q-2 9-8 2"/><path fill="url(#a)" d="M1577 534q0 4-3 3t-2-3l-2-3q-2 0-3 2 0 3-2 2l-1-3q3-9-6-7-3 0-2-1 1-4 5-5 3-1 4 2 2 5 9 4 4 1 4 4z"/><path fill="url(#a)" d="m1600 595-3-3v-4q1-2 3-1h12q2-2 4 1 1 3-2 5l-4 2q-5 9-10 0"/><path fill="url(#a)" d="m1703 662 4-1q5 2 6 5 0 4-3 6c-3 2-3-3-6-3l-1 3q-1 3-4 2l-3-3q0-7 7-9"/><path fill="url(#a)" d="m1365 452-2-5q-2-4 1-7h6l5 3 2 3q-1 3-4 2z"/><path fill="url(#a)" d="m1683 936-4 1q-3 0-4-3-1-2 1-3 1-2 4-1 4 3 7-1c3-3 4 1 6 2q2 3-2 4-3 3-8 1"/><path fill="url(#a)" d="M1542 503q-1-5 5-6l2 2q1 1-1 2c-3 2-6 5 1 6q2 2 1 3-4 3-9 3-4-3 0-8z"/><path fill="url(#a)" d="M1689 685q-5 3-5-2c0-3-4-6 0-8q3-3 5-1 4 3 4 8 0 4-4 3"/><path fill="url(#a)" d="M1672 674c3 6-2 10-4 15q-2 3-3-1l1-13q1-6 6-1"/><path fill="url(#a)" d="M1596 618q8 1 13-4 2-2 4-1t2 3-2 6c-4 1-14-1-17-4"/><path fill="url(#a)" d="M1711 780c4-1 8 0 7-6 2 4 7 4 7 9q1 3-2 5-3 0-3-2-3-4-7-2-5 1-2-4"/><path fill="url(#a)" d="M1672 914c0-2-5-3-2-6q4-3 8 0l8 3c-6 2-12 2-13 9q-2-3-1-6"/><path fill="url(#a)" d="M1728 974c-3-6 1-11 1-17q1-2 3-1l4 2q1 3-1 3-6 4-5 11 1 2-2 2"/><path fill="url(#a)" d="M1755 719q-7 2-6-4-2-6 4-10-4 6 3 7 3 1-1 7"/><path fill="url(#a)" d="m1471 794-2 5q0 3-3 2-4-1-3-4l1-4c0-1-3-4 0-4 2 0 7 0 7 5"/><path fill="url(#a)" d="M1565 612q-1-4 3-6c4 0 11 4 11 6l-1 2h-3c-3-5-7-3-10-2"/><path fill="url(#a)" d="M1755 704q-3-2-4-1-3 2-5-1 0-4 3-6t5 1c1 2 6 3 1 7"/><path fill="url(#a)" d="M1681 696c-2-1-5-2-1-4q3-1 6 2 2 3 0 7 0 4-3 4h-2q-1-2 1-3 3-4-1-6"/><path fill="url(#a)" d="m1633 703-8-2-1-2 2-1 4-1q3-2 6 0c2 2-1 5-1 7 0 3-1 0-2-1"/><path fill="url(#a)" d="m1091 737-11 2q-2 1-3-2v-2c2-2 12-1 14 2"/><path fill="url(#a)" d="M1722 723v-1q2-4 6-3l2 4q1 3-3 3-3 2-5-3"/><path fill="url(#a)" d="M1590 622c3-1 5 3 7 4v2q-3 3-6 0c-1-2-6-3-1-6"/><path fill="url(#a)" d="M1728 762q4 0 4 5-1 3-3 2c-2-2-6-1-6-5q1-2 5-2"/><path fill="url(#a)" d="M1582 754q-2 2-2 0l2-7 2-2q2 1 2 3l1 6c-2 1-3-3-5 0"/><path fill="url(#a)" d="M1646 714q-5 2-5-2c1-2-1-5 2-5q3 0 6 4 1 2-3 3"/><path fill="url(#a)" d="M1721 633q1 5-2 5-3 1-4-3 0-4 3-6 3 0 3 4"/><path fill="url(#a)" d="m1689 713-3 2q-4 2-6-1 1-4 4-5 5-2 5 4"/><path fill="url(#a)" d="M1280 629q4-5 8-3 3 1 1 4-4 3-9-1"/><path fill="url(#a)" d="M1578 543h1q3-3 5-1 0 4-3 3l-5 4h-4q0-3 2-3z"/><path fill="url(#a)" d="m1619 587-1-4q0-2 3-3 2 1 2 3v3q1 2-1 3-1 1-3-2"/><path fill="url(#a)" d="M1318 560q-2-3 0-6h4q2 3 1 5 0 3-5 1"/><path fill="url(#a)" d="M1813 761q4-3 4-1c0 2 4 5 0 8h-2q-3-3-2-7"/><path fill="url(#a)" d="M1458 488c4-1 9 3 13 0h1q1 2-1 2c-3 3-10 2-13-2"/><path fill="url(#a)" d="M1468 805q4 1 2 4l-6 1q-2-1-1-3 0-4 5-2"/><path fill="url(#a)" d="M1202 606q-1-3 2-4 2-1 3 1 2 2 1 5-3 1-6-2"/><path fill="url(#a)" d="M1690 902q1-4 3-2 3 1 4 4l-4 1q-3 2-3-3"/><path fill="url(#a)" d="M1717 750q4-3 5 1t-3 6l-2-2z"/><path fill="url(#a)" d="M1821 782q4 0 4 2-1 3-4 5l-2-1c0-2-2-5 2-6"/><path fill="url(#a)" d="M1640 588q4 1 2 4-3 3-6 3v-3q0-3 4-4"/><path fill="url(#a)" d="M1699 695q1 4-3 3-3 1-3-2v-3q3-1 6 2"/><path fill="url(#a)" d="m1593 545-1 2-5-8q-1-1 1-2 2 0 3 3z"/><path fill="url(#a)" d="m1810 787-3 1q-1 3-4 2v-4q1-2 4-2 2 0 3 3"/><path fill="url(#a)" d="M1757 785q-4 0-3-3t4-3q2-1 2 1 1 3-3 5"/><path fill="url(#a)" d="M1731 659q-2-2 1-5h2q2 3 1 5-1 3-4 0"/><path fill="url(#a)" d="M1672 704q2 3 0 4-2 2-3-1l-2-4q3-2 5 1"/><path fill="url(#a)" d="M1812 773q-5 3-6-1-2-2 1-3 4-1 5 4"/><path fill="url(#a)" d="M1202 727q0-4 3-3l3 3-2 2q-3 1-4-2"/><path fill="url(#a)" d="M1703 705q0 5-4 3l-4-3q-1-1 2-1z"/><path fill="url(#a)" d="m1585 488-2 1q-3 1-5-1-1-3 3-3 3-2 4 3"/><path fill="url(#a)" d="M1656 864q-1 1-3-1l-2-4 2-1q3 0 4 4z"/><path fill="url(#a)" d="M1378 425q2-3 7-5-1 8-7 5"/><path fill="url(#a)" d="M1555 461q4 0 3 5-1 2-3 1-3-2 0-6"/><path fill="url(#a)" d="M1758 632v-3q-1-3 2-3h3q1 2-1 4l-1 2z"/><path fill="url(#a)" d="M1632 598q2 3-1 4h-3q-2-1-1-4z"/><path fill="url(#a)" d="M1595 760q-3 3-5-1-1-2 2-3 4 0 3 4"/><path fill="url(#a)" d="M1783 767q2 2 7 3 0 5-4 3-5-1-3-6"/><path fill="url(#a)" d="M1819 832q-3 1-2-2t4-4l1 3q0 2-3 3"/><path fill="url(#a)" d="M1517 488q1-2 4-1l-1 3-2 1q0 2-3 2-2-1 1-4z"/><path fill="url(#a)" d="M1596 776h4q2 1 1 3l-2 1c-1-1-5 1-3-4"/><path fill="url(#a)" d="m1750 765-2 1q-2 2-5 0-1-2 1-2 4-2 6 1"/><path fill="url(#a)" d="M1655 630q-1 3-4 2v-3q0-3 2-2t2 3"/><path fill="url(#a)" d="M1758 632h3q1 6-3 5h-3q0-3 3-5"/><path fill="url(#a)" d="m1499 477-1 2q-2 2-3 1l-2-2q0-2 3-2 2-3 3 1"/><path fill="url(#a)" d="M1599 683q-3-1-1-3 1-3 3-2t0 3q1 2-2 2"/><path fill="url(#a)" d="M1143 673q-2 3-5 1l-1-2q3-3 6 0"/><path fill="url(#a)" d="M1799 773q5 0 2 3 0 3-3 3-2-2 0-4z"/><path fill="url(#a)" d="M1525 776q3 3 0 6l-1 1q-3-4 1-7"/><path fill="url(#a)" d="M1616 846q3-3 7-1l-6 4q-2 1-1-3"/><path fill="url(#a)" d="M1759 774q0-3 4-4 3 1 3 3-2 3-7 1"/><path fill="url(#a)" d="M1664 853q-2-3 1-3h5q1 2-1 2z"/><path fill="url(#a)" d="M1533 782q3 2-1 5h-2q-2-4 3-5"/><path fill="url(#a)" d="M1537 492q2-5 5-2 1 1-1 3-3 3-4-1"/><path fill="url(#a)" d="M1714 646q5 1 3 4h-3q-3-1 0-4"/><path fill="url(#a)" d="M1795 792q-2 3-4 0-1-1 1-3 4-2 3 3"/><path fill="url(#a)" d="M1726 800q3 1 3 3l-4 1-2-2q1-3 3-2"/><path fill="url(#a)" d="M1770 771q4-3 4-1 0 3-4 5z"/><path fill="url(#a)" d="M1606 843q3 0 1 2l-6 3q0-5 5-5"/><path fill="url(#a)" d="M1749 615q-2-6 6-4z"/><path fill="url(#a)" d="M1661 564c3 2 0 3-1 5h-2v-2q0-2 3-3"/><path fill="url(#a)" d="M1483 807q3 0 3 2l-1 3q-3 0-3-3z"/><path fill="url(#a)" d="M1728 617q3 3 0 4l-3-1q0-4 3-3"/><path fill="url(#a)" d="M1676 841q0-2 2-2 3 0 3 2-1 3-3 1z"/><path fill="url(#a)" d="M1220 615q-2-3 1-3t2 2q-1 4-3 1"/><path fill="url(#a)" d="M1547 649q1 3-2 3l-2-1q0-3 4-2"/><path fill="url(#a)" d="M1689 658q-3 1-5-3 5-1 5 3"/><path fill="url(#a)" d="M1709 766q2 1 1 3h-3q-2-3 2-3"/><path fill="url(#a)" d="M1811 803q-4-1-1-3 1-1 3 1 1 3-2 2"/><path fill="url(#a)" d="M1815 751q-2 3-3 1v-3q1-1 3 2"/><path fill="url(#a)" d="M1301 593q0 3-3 2v-2q1-3 3 0"/><path fill="url(#a)" d="M1743 898q-3-1-2-4 1-1 3 1t-1 3"/><path fill="url(#a)" d="M1285 525q2 3-3 3l-1-1q1-2 4-2"/><path fill="url(#a)" d="M1592 767q-3 0-2-3 1-1 3 1t-1 2"/><path fill="url(#a)" d="M1611 702q-2 2-5 0 3-3 5 0"/><path fill="url(#a)" d="M1434 502q-3-1-1-3t3 1-2 2"/><path fill="url(#a)" d="M1605 729q-1-3 1-4h1q2 3-2 4"/><path fill="url(#a)" d="M1254 573q3-1 2 2 1 2-2 1z"/><path fill="url(#a)" d="M1588 782q3 0 2 3h-2q-3-1 0-3"/><path fill="url(#a)" d="M1163 770q2-2 2 1-1 2-3 1-2-2 1-2"/><path fill="url(#a)" d="M1539 664q0 3-3 2v-2q2-3 3 0"/><path fill="url(#a)" d="M1485 739q-2-2-1-3 2-1 3 1t-2 2"/><path fill="url(#a)" d="M1317 547q3 2 1 3l-2-1q-2-2 1-2"/><path fill="url(#a)" d="M1498 444q0 3-3 1v-1q2-3 3 0"/><path fill="url(#a)" d="M1437 493q-1 2-3 1v-3q2-1 3 2"/><path fill="url(#a)" d="M1702 725q0-2 3-2v2q0 2-3 0"/><path fill="url(#a)" d="M1700 686q0 3-5 3 2-4 5-3"/><path fill="url(#a)" d="M1820 795q1 1-1 3l-1-1q-1-2 2-2"/><path fill="url(#a)" d="M1457 793h3l-2 2q-2 0-1-2"/><path fill="url(#a)" d="M1509 826q0-4 2-2l1 2z"/><path fill="url(#a)" d="M1712 604q1 2-1 2-1 1-2-1 0-3 3-1"/><path fill="url(#a)" d="M1791 802q0-2 2-1v2q-2 1-2-1"/><path fill="url(#a)" d="M1698 720q2-2 3-1 1 2-1 2-2 2-2-1"/><path fill="url(#a)" d="M1586 498q2-2 3-1v2q-2 1-3-1"/><path fill="url(#a)" d="M1466 421h2v2q-2 1-2-2"/><path fill="url(#a)" d="M1717 620v3h-1q-2-1 1-3"/><path fill="url(#a)" d="M1752 857q0 3-2 2-1 1-1-1t3-1"/><path fill="url(#a)" d="M1761 866q-3 1-2-1l2-1z"/><path fill="url(#a)" d="M1679 685q-2 0-1-2h2q2 1-1 2"/><path fill="url(#a)" d="M1587 778q-3 0-1-2h2q1 2-1 2"/><path fill="url(#a)" d="M1239 543q0-2 2-1v2q-2 1-2-1"/><path fill="url(#a)" d="M1745 627q1 3-3 3l1-3z"/><path fill="url(#a)" d="M1367 430q-2 3-5 1 2-3 5-1"/><path fill="url(#a)" d="M1348 444q-2-2 0-2h1q1 3-1 2"/><path fill="url(#a)" d="m1719 823-1 2q-2 0-1-2 0-2 2 0"/><path fill="url(#a)" d="M1649 609q-2-1-1-2h3z"/><path fill="url(#a)" d="M1514 815q3-1 2 1l-1 1z"/><path fill="url(#a)" d="M1576 496v-3l1 1q2 2-1 2"/><path fill="url(#a)" d="m1709 875-1 2-1-2q0-2 2 0"/><path fill="url(#a)" d="M1598 724v2l-2-1q0-3 2-1"/><path fill="url(#a)" d="M1287 487h-2v-1q2-1 2 1"/><path fill="url(#a)" d="M1615 689v2l-1-1z"/><path fill="url(#a)" d="M1687 621v-2h1q1 2-1 2"/><path fill="url(#a)" d="m1569 544-1 2-1-1q0-3 2-1"/><path fill="url(#a)" d="M1784 762q-2 2-3-2 2-1 3 2"/><path fill="url(#a)" d="m1386 432 3 3q-2 1-3-3"/><path fill="url(#a)" d="M1729 778h2l-1 1z"/><path fill="url(#a)" d="m1272 579 1 1-1 1z"/><path fill="url(#a)" d="M1077 699h1l-1 2z"/><path fill="url(#a)" d="M1521 502q1-2 3-1v1z"/><path fill="url(#a)" d="M1350 506v-2h1z"/><path fill="url(#a)" d="M1769 618h-2v-1q2-2 2 1"/><path fill="url(#a)" d="M1727 594v2z"/><path fill="url(#a)" d="M1810 787q2-1 2 2z"/><path fill="url(#a)" d="m1231 603 1 1z"/><path fill="url(#a)" d="m1691 647 1-1z"/><path fill="url(#a)" d="m1659 856 1 2z"/><path fill="url(#a)" d="M1605 690q-2 0-1-1h1z"/><path fill="url(#a)" d="M1218 519h1v1q-1 1-1-1"/><path fill="url(#a)" d="M1745 741v1l-1-1z"/><path fill="url(#a)" d="M1240 590v-1h1q1 1-1 1"/><path fill="url(#a)" d="m1765 858 1 1z"/><path fill="url(#a)" d="m1749 637 1 1h-2z"/><path fill="url(#a)" d="M1722 619v-1z"/><path fill="url(#a)" d="m1491 757 1 1h-1z"/><path fill="url(#a)" d="M1535 458v1z"/><path fill="url(#a)" d="m1448 486 1-1v1z"/><path fill="url(#a)" d="M1719 663h2l-1 1z"/><path fill="url(#a)" d="M1493 462q-2 0-1-1h1z"/><path fill="url(#a)" d="m1368 524-1-1h1z"/><path fill="url(#a)" d="m1598 559 1 1h-1z"/><path fill="url(#a)" d="M1810 795h1v1z"/><path fill="url(#a)" d="m1458 464-1 1v-1z"/><path fill="url(#a)" d="m1612 600 1 1z"/><path fill="url(#a)" d="M1609 494h1z"/><path fill="url(#a)" d="m1736 763-1-1h1z"/><path fill="url(#a)" d="m1373 519 1 1h-1z"/><path fill="url(#a)" d="m1744 760 1-1z"/><path fill="url(#a)" d="M1745 627h-2q1-3 2 0"/><path fill="url(#a)" d="M1541 960q-4-3-9 1l-3 1c-7 1-8 1-9 9l-1 2q0-5-4-7-2-2-4-1-2 3 1 4 3 2 2 5l-4 2q-3 0-3-3-2-6 3-11 3 0 3-4-2-2-4-1-3 1-5-2l2-3q3-2 0-5l-5-6q7-1 12-7l1-1c8 1 8-7 12-11q4-1 7-7l1 1 1 2c-3 4 0 8 1 12l1 6q-1 9 3 17 4 3 1 7"/><path fill="url(#a)" d="M1554 916c-2-2-6-2-4-6q3-4 8-2 6 2 10-3 4-3 2-9-2-1-1-3 3-3 4-1l7 3v2l-2 1q-6-1-6 5 1 6-3 11-2 4-6 3-2-2-3 1-1 2 1 3 3 3 2 6-2 2-5 2-3 1-2-1c4-5 0-8-2-12"/><path fill="url(#a)" d="M1459 977c-1-4 2-8 0-12q-1-2 2-1 3 2 2 4 0 4 3 6l1 2q1 5-4 7-4 1-4-6"/><path fill="url(#a)" d="M1437 975q6 0 11 3 3 0 2 2-1 3-3 2c-3-1-8 1-10-4l-7-1q-2 0-3-2 1-4 4-3z"/><path fill="url(#a)" d="m1416 972-3-1q0-3 2-4c2 0 4-4 7-3q3 2 3 5t-3 3z"/><path fill="url(#a)" d="M1541 942q1-6-2-10l2-4h4v11q2 5-4 3"/><path fill="url(#a)" d="M1560 989q-4-4-11-6-3 0-1-4 2-3 6-2l3 5q3-2 4 2z"/><path fill="url(#a)" d="M1462 918q-3 9-11 5-3-1-2-3 2-3 5-3 3 2 8 1"/><path fill="url(#a)" d="m1561 984-4-2q-1-8 7-11l3 1v3q0 2-2 0-3-2-4 1t1 4q5 2-1 4"/><path fill="url(#a)" d="m1541 960-1-7q5-5 9 2l-1 3z"/><path fill="url(#a)" d="m1433 920-2 9q0 2-3 2l-2-3q0-6 7-8"/><path fill="url(#a)" d="m1489 945-5-1q3-4 7-3l2 2q0 3-4 2"/><path fill="url(#a)" d="m1484 957-4-1q1-3 3-2h1c1 0 4-4 5-1q0 3-5 4"/><path fill="url(#a)" d="M1513 922q-3 1-3-2 1-2 4-2 2-1 3 1t-2 2z"/><path fill="url(#a)" d="M1582 883q3 2 2 4h-5q-2 0-1-3 0-2 4-1"/><path fill="url(#a)" d="M1487 933q2 3 1 4-3 0-4-3v-3q3-1 3 2"/><path fill="url(#a)" d="M1487 982q-1-3 2-3t1 2q0 4-3 1"/><path fill="url(#a)" d="M1542 913q2 1 0 3h-2q-1-3 2-3"/><path fill="url(#a)" d="M1502 977q-3-1-1-3h2q2 3-1 3"/><path fill="url(#a)" d="M1578 916v2q-2 1-5-1 2-2 5-1"/><path fill="url(#a)" d="M1519 887v-1q2-1 2 1z"/><path fill="url(#a)" d="m1450 972 2 2-1 1q-2-1-1-3"/><path fill="url(#a)" d="M1397 953h2l-1 2q-2 1-1-2"/><path fill="url(#a)" d="M1540 923q2 0 1 1l-1 1z"/><path fill="url(#a)" d="M1436 930h-2v-1q2-1 2 1"/><path fill="url(#a)" d="M1538 868q0 3-2 1v-1z"/><path fill="url(#a)" d="M1545 924q0-2 2-1v1z"/><path fill="url(#a)" d="m1577 876-1 1v-2z"/><path fill="url(#a)" d="m1502 928 1 2h-1z"/><path fill="url(#a)" d="M1485 925h1l-1 1z"/><path fill="url(#a)" d="M1537 902v-1h1q1 1-1 1"/><path fill="url(#a)" d="m1436 964-1 1z"/><path fill="url(#a)" d="M1530 882h1l-1 1z"/><path fill="url(#a)" d="M1523 919h1z"/><path fill="url(#a)" d="m1433 920 1-1h1z"/><path fill="url(#a)" d="M1689 889h-2l-3-2 1-2q3-1 3 2z"/></svg>